<?xml version="1.0" standalone="no"?><svg xmlns="http://www.w3.org/2000/svg" viewBox="0 0 1440 320"><path fill="#f6df99" fill-opacity="1" d="M0,96L34.3,90.7C68.6,85,137,75,206,101.3C274.3,128,343,192,411,202.7C480,213,549,171,617,154.7C685.7,139,754,149,823,170.7C891.4,192,960,224,1029,224C1097.1,224,1166,192,1234,170.7C1302.9,149,1371,139,1406,133.3L1440,128L1440,0L1405.7,0C1371.4,0,1303,0,1234,0C1165.7,0,1097,0,1029,0C960,0,891,0,823,0C754.3,0,686,0,617,0C548.6,0,480,0,411,0C342.9,0,274,0,206,0C137.1,0,69,0,34,0L0,0Z"></path></svg>